# xmcd CD database file
#
# Track frame offsets:
#	150
#	18990
#	34710
#	53603
#
# Disc length: 1152 seconds
#
# Revision: 1
# Processed by: cddbd v1.5.2PL0 Copyright (c) Steve Scherf et al.
# Submitted via: CDex 1.70beta2
#
DISCID=24047e04
DTITLE=compilation - Jazzmag n°597 - Il y a 50 ans, 1958
DYEAR=2008
DGENRE=Jazz
TTITLE0=Miles Davis - Buzzard Song
TTITLE1=Duke Ellington - Pie Eye's Blues
TTITLE2=Billie Holiday - Glad to be unhappy
TTITLE3=Art Blakey - Whisper not
EXTD=YEAR: 2008
EXTT0=
EXTT1=
EXTT2=
EXTT3=
PLAYORDER=
